<?xml version="1.0" encoding="windows-1252"?>
<!-- Generator: Adobe Illustrator 21.0.0, SVG Export Plug-In . SVG Version: 6.00 Build 0)  -->
<svg version="1.1" xmlns="http://www.w3.org/2000/svg" xmlns:xlink="http://www.w3.org/1999/xlink" x="0px" y="0px" viewBox="0 0 48 48" style="enable-background:new 0 0 48 48;" xml:space="preserve">
<g>
	<path style="fill:#FFE0B2;" d="M42,9.028c0-1.129,0-2.139-1-3.117C37,2.978,30.981,2,24,2S11,2.978,7,5.911   C6,6.889,6,7.899,6,9.028l1,16.604C8,31.333,12,43.067,24.034,46C24.034,46,37,44,41,25.625L42,9.028z"/>
	<path style="fill:#FFCC80;" d="M21.594,17.094c-0.038,0.009,0.919,9.75,0.919,9.75l-2.2-0.875l0.344-8.312L21.594,17.094z"/>
	<path style="fill:#FFCC80;" d="M31.156,20.16c-1.018-0.725-3.031-2.16-0.688-5.317c-1.866,0.339-3.938,2.411-3.938,4.375   c0,2.209,1.791,4,4,4c0.213,0,0.421-0.018,0.625-0.051V20.16z"/>
	<path style="fill:#FFCC80;" d="M23.123,38.984c-5.583-0.333-7.083-4.5-7.083-4.5l5.167-0.333l2.333-4.354   c0,0-2.327,1.188-7.5,1.188c-5.193,0-7.94-5.568-4.86-9.377c0.913,0.944,2.11,1.612,3.227,1.612c0.213,0,0.421-0.018,0.625-0.051   V20.16c-0.543-0.387-0.725-0.88-0.781-1.457c-0.937-0.463-1.587-1.418-1.587-2.534c0-0.997,0.517-1.87,1.294-2.375   c0.009-0.082,0.02-0.161,0.041-0.21c-1.006,0.183-2.184,1-3.059,2.02c0.019-0.678,0.152-1.127,0.152-1.127   s0.438-5.758,1.028-11.043c0,0-4.8,1.35-5.811,3.513C6.172,7.243,5.962,8.222,6.049,9.849c0.253,4.681,0.765,12.664,0.99,15.767   c0.127,1.762,0.757,3.249,1.045,4.158C12.624,44.129,24.034,46,24.034,46L23.123,38.984z"/>
	<path style="fill:#424242;" d="M32,12c-3.438,0-5.195,3.074-5.561,3.439c-0.586,0.586-0.586,1.536,0,2.121   c0.586,0.586,1.536,0.586,2.121,0C28.974,17.15,30.313,14,33,14c1.387,0,3.047,0.64,5,2C36.145,12.877,33.996,12,32,12z"/>
	<path style="fill:#424242;" d="M16,12c-1.996,0-4.145,0.877-6,4c1.953-1.36,3.613-2,5-2c2.688,0,4.026,3.15,4.439,3.561   c0.585,0.586,1.535,0.586,2.121,0c0.586-0.585,0.586-1.535,0-2.121C21.195,15.074,19.438,12,16,12z"/>
	<path style="fill:#424242;" d="M16,18.521c-1.64,0-3.082,0.594-4,1.5c0.918,0.906,2.36,1.5,4,1.5s3.082-0.594,4-1.5   C19.082,19.115,17.64,18.521,16,18.521z"/>
	<path style="fill:#424242;" d="M32,18.521c-1.64,0-3.082,0.594-4,1.5c0.918,0.906,2.36,1.5,4,1.5s3.082-0.594,4-1.5   C35.082,19.115,33.64,18.521,32,18.521z"/>
	<polygon style="fill:#424242;" points="10,27 15,35 22,35 24,33 26,35 33,35 38,27 32,33 28,33 25,29 23,29 20,33 16,33  "/>
	<g>
		<path style="fill:#424242;" d="M22,38v7.389c0.653,0.23,1.327,0.438,2.034,0.611c0,0,0.761-0.12,1.966-0.556V38H22z"/>
	</g>
</g>
<g>
</g>
</svg>