<svg xmlns="http://www.w3.org/2000/svg" xmlns:xlink="http://www.w3.org/1999/xlink" version="1.1" width="256" height="256" viewBox="0 0 256 256" xml:space="preserve">

<defs>
</defs>
<g style="stroke: none; stroke-width: 0; stroke-dasharray: none; stroke-linecap: butt; stroke-linejoin: miter; stroke-miterlimit: 10; fill: none; fill-rule: nonzero; opacity: 1;" transform="translate(1.4065934065934016 1.4065934065934016) scale(2.81 2.81)" >
	<circle cx="43.744" cy="19.974" r="17.594" style="stroke: none; stroke-width: 1; stroke-dasharray: none; stroke-linecap: butt; stroke-linejoin: miter; stroke-miterlimit: 10; fill: rgb(191,134,0); fill-rule: nonzero; opacity: 1;" transform="  matrix(1 0 0 1 0 0) "/>
	<circle cx="46.254000000000005" cy="19.974" r="17.594" style="stroke: none; stroke-width: 1; stroke-dasharray: none; stroke-linecap: butt; stroke-linejoin: miter; stroke-miterlimit: 10; fill: rgb(234,165,0); fill-rule: nonzero; opacity: 1;" transform="  matrix(1 0 0 1 0 0) "/>
	<circle cx="46.254999999999995" cy="19.975" r="12.575" style="stroke: none; stroke-width: 1; stroke-dasharray: none; stroke-linecap: butt; stroke-linejoin: miter; stroke-miterlimit: 10; fill: rgb(255,179,0); fill-rule: nonzero; opacity: 1;" transform="  matrix(1 0 0 1 0 0) "/>
	<path d="M 50.2 21.216 c -0.696 -1.455 -2.417 -2.129 -3.839 -2.553 c -1.707 -0.509 -2.075 -0.948 -2.154 -1.113 c -0.052 -0.107 -0.028 -0.282 0.053 -0.481 c 0.254 -0.569 0.999 -0.966 1.81 -0.966 c 0.583 0 1.132 0.205 1.489 0.532 c 0.264 0.241 0.651 0.287 0.977 0.141 l 0.854 -0.383 c 0.564 -0.253 0.742 -0.988 0.332 -1.451 c -0.625 -0.706 -1.497 -1.208 -2.485 -1.432 v -1.009 c 0 -0.513 -0.416 -0.929 -0.929 -0.929 l -0.876 0 c -0.513 0 -0.929 0.416 -0.929 0.929 l 0 1.117 c -1.231 0.39 -2.243 1.226 -2.756 2.375 c -0.502 1.225 -0.281 2.165 -0.007 2.737 c 0.696 1.456 2.417 2.129 3.839 2.553 c 1.708 0.509 2.076 0.948 2.155 1.113 c 0.051 0.107 0.028 0.283 -0.053 0.481 c -0.254 0.569 -0.999 0.965 -1.811 0.965 c -0.583 0 -1.132 -0.205 -1.489 -0.531 c -0.264 -0.241 -0.65 -0.287 -0.976 -0.141 l -0.854 0.383 c -0.57 0.256 -0.738 0.997 -0.324 1.464 c 0.581 0.655 1.374 1.135 2.276 1.379 v 1.05 c 0 0.513 0.416 0.929 0.929 0.929 h 0.876 c 0.513 0 0.929 -0.416 0.929 -0.929 v -1.05 c 1.322 -0.358 2.414 -1.231 2.956 -2.442 C 50.695 22.729 50.474 21.789 50.2 21.216 z" style="stroke: none; stroke-width: 1; stroke-dasharray: none; stroke-linecap: butt; stroke-linejoin: miter; stroke-miterlimit: 10; fill: rgb(191,134,0); fill-rule: nonzero; opacity: 1;" transform=" matrix(1 0 0 1 0 0) " stroke-linecap="round" />
	<path d="M 9.243 11.432 c -2.023 -0.023 -3.751 1.496 -3.94 3.51 c -1.458 15.497 -7.082 35.66 -4.739 41.62 c 0.098 0.318 0.209 0.631 0.33 0.939 c 1.06 2.698 2.94 5.034 4.764 7.303 c 2.002 2.489 4.07 5.06 4.996 8.052 l 2.293 7.409 l 22.095 -8.686 l -1.25 -4.04 c -0.771 -2.503 -2.374 -4.235 -3.919 -5.9 c -1.446 -1.559 -2.809 -3.031 -3.46 -5.084 l -3.092 -13.622 c -1.149 -4.873 -4.377 -6.533 -7.03 -7.276 l -3.222 -20.919 C 12.77 12.851 11.154 11.454 9.243 11.432 L 9.243 11.432 z" style="stroke: none; stroke-width: 1; stroke-dasharray: none; stroke-linecap: butt; stroke-linejoin: miter; stroke-miterlimit: 10; fill: rgb(238,198,179); fill-rule: nonzero; opacity: 1;" transform=" matrix(1 0 0 1 0 0) " stroke-linecap="round" />
	<path d="M 17.364 60.575 c -3.87 -6.826 -4.464 -16.624 -3.353 -23.193 c 0.184 -1.086 1.184 -1.841 2.279 -1.724 h 0 C 13.97 37.636 15.645 52.387 17.364 60.575 z" style="stroke: none; stroke-width: 1; stroke-dasharray: none; stroke-linecap: butt; stroke-linejoin: miter; stroke-miterlimit: 10; fill: rgb(205,149,123); fill-rule: nonzero; opacity: 1;" transform=" matrix(1 0 0 1 0 0) " stroke-linecap="round" />
	<path d="M 8.001 13.961 c -1.28 15.949 -6.69 36.657 -4.265 42.825 c 0.103 0.329 0.217 0.653 0.343 0.971 c 1.098 2.792 3.014 5.222 4.873 7.581 c 2.041 2.588 4.15 5.262 5.116 8.355 l 1.705 5.46 l -2.825 1.111 l -2.293 -7.409 c -0.926 -2.991 -2.994 -5.563 -4.996 -8.052 c -1.823 -2.268 -3.703 -4.605 -4.764 -7.303 c -0.121 -0.308 -0.232 -0.621 -0.33 -0.939 c -2.343 -5.96 3.281 -26.123 4.739 -41.62 c 0.188 -2.003 1.899 -3.514 3.908 -3.508 C 8.536 12.071 8.082 12.951 8.001 13.961 z" style="stroke: none; stroke-width: 1; stroke-dasharray: none; stroke-linecap: butt; stroke-linejoin: miter; stroke-miterlimit: 10; fill: rgb(205,149,123); fill-rule: nonzero; opacity: 1;" transform=" matrix(1 0 0 1 0 0) " stroke-linecap="round" />
	<path d="M 4.398 73.64 v 11.557 c 0 1.338 1.085 2.424 2.424 2.424 h 28.654 c 1.338 0 2.424 -1.085 2.424 -2.424 V 73.64 c 0 -1.338 -1.085 -2.424 -2.424 -2.424 H 6.821 C 5.483 71.216 4.398 72.301 4.398 73.64 z" style="stroke: none; stroke-width: 1; stroke-dasharray: none; stroke-linecap: butt; stroke-linejoin: miter; stroke-miterlimit: 10; fill: rgb(52,57,54); fill-rule: nonzero; opacity: 1;" transform=" matrix(1 0 0 1 0 0) " stroke-linecap="round" />
	<path d="M 37.899 73.64 v 1.191 c -0.09 -0.01 -0.178 -0.027 -0.271 -0.027 H 8.974 c -1.338 0 -2.424 1.085 -2.424 2.424 v 10.366 c -1.209 -0.136 -2.152 -1.151 -2.152 -2.396 V 73.64 c 0 -1.338 1.085 -2.424 2.424 -2.424 h 28.654 C 36.814 71.216 37.899 72.301 37.899 73.64 z" style="stroke: none; stroke-width: 1; stroke-dasharray: none; stroke-linecap: butt; stroke-linejoin: miter; stroke-miterlimit: 10; fill: rgb(46,50,47); fill-rule: nonzero; opacity: 1;" transform=" matrix(1 0 0 1 0 0) " stroke-linecap="round" />
	<path d="M 80.757 11.432 c 2.023 -0.023 3.751 1.496 3.94 3.51 c 1.458 15.497 7.082 35.66 4.739 41.62 c -0.098 0.318 -0.209 0.631 -0.33 0.939 c -1.06 2.698 -2.94 5.034 -4.764 7.303 c -2.002 2.489 -4.07 5.06 -4.996 8.052 l -2.293 7.409 l -22.095 -8.686 l 1.25 -4.04 c 0.771 -2.503 2.374 -4.235 3.919 -5.9 c 1.446 -1.559 2.809 -3.031 3.46 -5.084 l 3.092 -13.622 c 1.149 -4.873 4.377 -6.533 7.03 -7.276 l 3.222 -20.919 C 77.23 12.851 78.846 11.454 80.757 11.432 L 80.757 11.432 z" style="stroke: none; stroke-width: 1; stroke-dasharray: none; stroke-linecap: butt; stroke-linejoin: miter; stroke-miterlimit: 10; fill: rgb(238,198,179); fill-rule: nonzero; opacity: 1;" transform=" matrix(1 0 0 1 0 0) " stroke-linecap="round" />
	<path d="M 72.636 60.575 c 3.87 -6.826 4.464 -16.624 3.353 -23.193 c -0.184 -1.086 -1.184 -1.841 -2.279 -1.724 l 0 0 C 76.03 37.636 74.355 52.387 72.636 60.575 z" style="stroke: none; stroke-width: 1; stroke-dasharray: none; stroke-linecap: butt; stroke-linejoin: miter; stroke-miterlimit: 10; fill: rgb(205,149,123); fill-rule: nonzero; opacity: 1;" transform=" matrix(1 0 0 1 0 0) " stroke-linecap="round" />
	<path d="M 81.999 13.961 c 1.28 15.949 6.69 36.657 4.265 42.825 c -0.103 0.329 -0.217 0.653 -0.343 0.971 c -1.098 2.792 -3.014 5.222 -4.873 7.581 c -2.041 2.588 -4.15 5.262 -5.116 8.355 l -1.705 5.46 l 2.825 1.111 l 2.293 -7.409 c 0.926 -2.991 2.994 -5.563 4.996 -8.052 c 1.823 -2.268 3.703 -4.605 4.764 -7.303 c 0.121 -0.308 0.232 -0.621 0.33 -0.939 c 2.343 -5.96 -3.281 -26.123 -4.739 -41.62 c -0.188 -2.003 -1.899 -3.514 -3.908 -3.508 C 81.464 12.071 81.918 12.951 81.999 13.961 z" style="stroke: none; stroke-width: 1; stroke-dasharray: none; stroke-linecap: butt; stroke-linejoin: miter; stroke-miterlimit: 10; fill: rgb(205,149,123); fill-rule: nonzero; opacity: 1;" transform=" matrix(1 0 0 1 0 0) " stroke-linecap="round" />
	<path d="M 85.602 73.64 v 11.557 c 0 1.338 -1.085 2.424 -2.424 2.424 H 54.525 c -1.338 0 -2.424 -1.085 -2.424 -2.424 V 73.64 c 0 -1.338 1.085 -2.424 2.424 -2.424 h 28.654 C 84.517 71.216 85.602 72.301 85.602 73.64 z" style="stroke: none; stroke-width: 1; stroke-dasharray: none; stroke-linecap: butt; stroke-linejoin: miter; stroke-miterlimit: 10; fill: rgb(52,57,54); fill-rule: nonzero; opacity: 1;" transform=" matrix(1 0 0 1 0 0) " stroke-linecap="round" />
	<path d="M 52.101 73.64 v 1.191 c 0.09 -0.01 0.178 -0.027 0.271 -0.027 h 28.654 c 1.338 0 2.424 1.085 2.424 2.424 v 10.366 c 1.209 -0.136 2.152 -1.151 2.152 -2.396 V 73.64 c 0 -1.338 -1.085 -2.424 -2.424 -2.424 H 54.525 C 53.186 71.216 52.101 72.301 52.101 73.64 z" style="stroke: none; stroke-width: 1; stroke-dasharray: none; stroke-linecap: butt; stroke-linejoin: miter; stroke-miterlimit: 10; fill: rgb(46,50,47); fill-rule: nonzero; opacity: 1;" transform=" matrix(1 0 0 1 0 0) " stroke-linecap="round" />
</g>
</svg>